<svg width="59" height="60" viewBox="0 0 59 60" fill="none" xmlns="http://www.w3.org/2000/svg">
<path d="M29.5 -0.083252C13.17 -0.083252 -0.083374 13.1701 -0.083374 29.5001C-0.083374 45.8301 13.17 59.0834 29.5 59.0834C45.83 59.0834 59.0833 45.8301 59.0833 29.5001C59.0833 13.1701 45.83 -0.083252 29.5 -0.083252ZM19.2345 33.8488C20.0925 34.7068 20.0925 36.1267 19.2345 36.9847C18.7908 37.4284 18.2287 37.6355 17.6666 37.6355C17.1045 37.6355 16.5425 37.4284 16.0987 36.9847L10.182 31.068C9.3241 30.2101 9.3241 28.7901 10.182 27.9322L16.0987 22.0155C16.9566 21.1576 18.3766 21.1576 19.2345 22.0155C20.0925 22.8734 20.0925 24.2934 19.2345 25.1513L14.8858 29.5001L19.2345 33.8488ZM34.4995 23.4651L28.5829 37.2805C28.2279 38.1088 27.3995 38.6117 26.5416 38.6117C26.2458 38.6117 25.95 38.5526 25.6837 38.4343C24.5595 37.9609 24.027 36.6592 24.53 35.5055L30.4466 21.6901C30.92 20.5659 32.2216 20.0334 33.3458 20.5363C34.47 21.0392 34.9729 22.3409 34.4995 23.4651ZM48.8179 31.068L42.9012 36.9847C42.4575 37.4284 41.8954 37.6355 41.3333 37.6355C40.7712 37.6355 40.2091 37.4284 39.7654 36.9847C38.9075 36.1267 38.9075 34.7068 39.7654 33.8488L44.1141 29.5001L39.7654 25.1513C38.9075 24.2934 38.9075 22.8734 39.7654 22.0155C40.6233 21.1576 42.0433 21.1576 42.9012 22.0155L48.8179 27.9322C49.6758 28.7901 49.6758 30.2101 48.8179 31.068Z" fill="#1DB954"/>
</svg>
